<svg viewBox="0 0 64 64" xmlns="http://www.w3.org/2000/svg"><path d="M39.982 57.57H23.946a1.75 1.75 0 0 0 0 3.5h16.036a1.75 1.75 0 0 0 0-3.5ZM47.532 7.844a23.343 23.343 0 1 0-28.514 36.815 7.188 7.188 0 0 1 3.282 5.943v1.911a1.35 1.35 0 0 0 1.35 1.35h6.995v-17.94h-2.71a5.913 5.913 0 0 1-1.35-11.67v-2.354a1.35 1.35 0 1 1 2.7 0v3.547a1.35 1.35 0 0 1-1.35 1.35 3.213 3.213 0 1 0 0 6.427h7.905a3.213 3.213 0 1 0 0-6.427 1.35 1.35 0 0 1-1.35-1.35V21.9a1.35 1.35 0 1 1 2.7 0v2.353a5.913 5.913 0 0 1-1.35 11.67h-2.497v17.94h6.823a1.35 1.35 0 0 0 1.35-1.35v-1.994a6.907 6.907 0 0 1 3.218-5.747 23.333 23.333 0 0 0 2.798-36.927Z" fill="#fa510f" class="fill-000000"></path></svg>