<svg data-name="Layer 2" viewBox="0 0 2050 2050" xmlns="http://www.w3.org/2000/svg"><path d="M1358.2 830.7h-103.9a20 20 0 0 1 0-40h103.9a20 20 0 0 1 0 40ZM1053.8 1298.4a20.2 20.2 0 0 1-19.3-14.5 190.8 190.8 0 0 1-7.2-51.6c0-103.1 83.9-187 187-187h282.8A107.5 107.5 0 0 0 1604.5 938c0-59.1-48.2-107.3-107.4-107.3h-67.3a20 20 0 0 1 0-40h67.3c81.3 0 147.4 66.1 147.4 147.3s-66.1 147.3-147.4 147.3h-282.8c-81.1 0-147 66-147 147a146.4 146.4 0 0 0 5.7 40.6 20 20 0 0 1-13.7 24.7 21.5 21.5 0 0 1-5.5.8ZM1430.7 1806.7H650.4a20 20 0 1 1 0-40h780.3c95.8 0 173.8-77.9 173.8-173.7s-78-173.8-173.8-173.8h-216.4a186.1 186.1 0 0 1-136.3-58.9 20 20 0 0 1 29.2-27.4 145.3 145.3 0 0 0 107.1 46.3h216.4a213.8 213.8 0 0 1 0 427.5ZM575 1806.7h-96.6a20 20 0 1 1 0-40H575a20 20 0 0 1 0 40Z" fill="#4d4c78" class="fill-4d4c78"></path><path d="M915.7 516.6 618.3 1626.2l-212.8-57 295-1100.7 212.8 57 2.4-8.9z" fill="#67baeb" class="fill-67baeb"></path><path d="M738.9 324.9A110.3 110.3 0 0 1 873.8 247a110.1 110.1 0 0 1 77.9 134.9l-16.4 61.5-212.8-57Z" fill="#fa510f" class="fill-de3226"></path><path d="m700.5 468.5 22-82.1-22 82.1zM915.7 516.6l19.6-73.2-19.6 73.2z" fill="#231f20" class="fill-231f20"></path><path d="m913.3 525.5-212.8-57 22-82.1 212.8 57-19.6 73.2-2.4 8.9z" fill="#f4c23f" class="fill-f4c23f"></path><path d="m618.3 1626.2-212.8-57 33.8 218c3.1 19.8 28.2 26.5 40.8 10.9Z" fill="#b9b1e0" class="fill-b9b1e0"></path><path d="m618.3 1626.2-56-15L857.2 510.5l56.1 15 2.4-8.9-297.4 1109.6z" fill="#46a1f8" class="fill-46a1f8"></path><path d="m722.5 386.4 156.7 42 16.5-61.5a110.2 110.2 0 0 0-50.9-123.6 107.4 107.4 0 0 1 29 3.7 110.1 110.1 0 0 1 77.9 134.9l-16.4 61.5Z" fill="#b11a31" class="fill-b11a31"></path><path d="m857.2 510.5 2.4-8.9 19.6-73.2 56.1 15-19.6 73.2-2.4 8.9-56.1-15z" fill="#f4a93f" class="fill-f4a93f"></path><path d="m439.3 1787.2-3-19.4 126-156.6 56 15-138.2 171.9c-12.6 15.6-37.7 8.9-40.8-10.9Z" fill="#b1a9d6" class="fill-b1a9d6"></path><path d="M750.3 762.8a20 20 0 0 0-36.6 4.8l-178.9 667.6a20 20 0 0 0 38.6 10.4L752.3 778a19.9 19.9 0 0 0-2-15.2ZM791.1 610.4a19.8 19.8 0 0 0-12.1-9.3 20 20 0 0 0-24.5 14.2l-19.3 72a20 20 0 0 0 38.6 10.4l19.3-72.1a20 20 0 0 0-2-15.2Z" fill="#4d4c78" class="fill-4d4c78"></path><rect height="278.37" rx="24.6" ry="24.6" transform="rotate(15 542.236 1154.566)" width="49.1" x="517.8" y="1015.5" fill="#83d0fb" class="fill-83d0fb"></rect><rect height="106.15" rx="24.6" ry="24.6" transform="rotate(15 605.784 918.242)" width="49.1" x="581.1" y="865.3" fill="#83d0fb" class="fill-83d0fb"></rect><rect height="61.1" rx="24.6" ry="24.6" transform="rotate(15 734.488 437.267)" width="49.1" x="710" y="406.7" fill="#fad564" class="fill-fad564"></rect><rect height="107.2" rx="24.6" ry="24.6" transform="rotate(15 762.996 342.716)" width="49.1" x="738.5" y="288.9" fill="#f44533" class="fill-f44533"></rect></svg>