<svg viewBox="0 0 24 24" xml:space="preserve" xmlns="http://www.w3.org/2000/svg" enable-background="new 0 0 24 24"><g id="_icons"><path d="M15.7 4.2c-.8-1.2-2.2-2-3.7-2s-2.9.8-3.7 2C7.9 4.1 7.4 4 7 4 5.1 4 3.6 5.5 3.6 7.3c0 1.8 1.5 3.3 3.4 3.3.7 0 1.4-.2 2-.7.8.7 1.9 1.1 3 1.1s2.2-.4 3-1.1c.6.4 1.3.7 2 .7 1.9 0 3.4-1.5 3.4-3.3C20.4 5.5 18.9 4 17 4c-.4 0-.9.1-1.3.2zM7 8.5c-.8 0-1.4-.5-1.4-1.2S6.2 6 7 6c.2 0 .4 0 .5.1v.5c0 .3 0 .5.1.8v.2c0 .2.1.4.2.6v.1c-.2.2-.5.2-.8.2zm5 .5c-.9 0-1.6-.4-2.1-1.1-.3-.4-.4-.8-.4-1.3 0-.2 0-.5.1-.7.3-1 1.3-1.7 2.4-1.7 1.1 0 2.1.7 2.4 1.7.1.2.1.5.1.7 0 .4-.1.9-.4 1.3-.5.7-1.2 1.1-2.1 1.1zm6.4-1.7c0 .7-.6 1.3-1.4 1.3-.3 0-.6-.1-.8-.2v-.1c.1-.2.1-.4.2-.5 0-.1 0-.1.1-.2 0-.3.1-.5.1-.8v-.5c0-.3.2-.3.4-.3.8 0 1.4.6 1.4 1.3zM21.6 14c-.4-1.7-1.9-3-3.5-3h-2.2c-.9 0-1.7.4-2.4 1h-3c-.7-.6-1.5-1-2.4-1H5.9c-1.6 0-3.1 1.2-3.5 3l-.3 1.2c-.2.7 0 1.5.4 2.1.4.5 1 .8 1.6.8v.1c-.3.9-.1 1.9.5 2.7C5.2 21.6 6 22 7 22h10c.9 0 1.8-.4 2.3-1.2.6-.8.8-1.8.5-2.7V18c.6 0 1.2-.3 1.6-.8.4-.6.6-1.3.4-2.1l-.2-1.1zM4.1 16c-.1-.1-.1-.2-.1-.4l.3-1.2c.2-.8.9-1.4 1.6-1.4h1l-.1.1c-.1.1-.2.2-.4.3l-.3.3-.3.3c-.1.1-.2.2-.3.4-.1.1-.2.3-.2.4-.1.1-.2.3-.2.4-.1.1-.1.3-.2.4 0 .1-.1.2-.1.3l-.7.1zm13.7 3.6c-.1.2-.4.4-.8.4H7c-.4 0-.6-.2-.7-.4-.3-.2-.3-.6-.3-.9l.4-1.4.1-.5C7 15.1 8.4 14 10 14h4c1.6 0 3 1.1 3.5 2.8l.1.5.4 1.4c0 .3 0 .7-.2.9zm2.1-3.6h-.6c0-.1-.1-.2-.1-.3-.1-.2-.1-.3-.2-.4-.1-.1-.1-.3-.2-.4-.1-.1-.2-.3-.3-.4l-.3-.3c-.1-.1-.2-.3-.3-.4l-.3-.3c-.1-.1-.3-.2-.4-.3l-.1-.1h1c.7 0 1.4.6 1.6 1.4l.3 1.2c0 .1 0 .2-.1.3z" fill="#fa510f" class="fill-000000"></path></g></svg>